<svg width="328" height="180" viewBox="0 0 328 180" fill="none" xmlns="http://www.w3.org/2000/svg">
<rect x="41.5" y="1.5" width="175" height="60" rx="13.5" fill="#FF9892" stroke="black" stroke-width="3"/>
<path d="M62.9034 43.3622C61.8665 43.3622 60.929 43.1705 60.0909 42.7869C59.2528 42.3963 58.5888 41.8317 58.0987 41.093C57.6158 40.3544 57.3743 39.4489 57.3743 38.3764C57.3743 37.4531 57.5518 36.6932 57.907 36.0966C58.2621 35.5 58.7415 35.0277 59.3452 34.6797C59.9489 34.3317 60.6236 34.0689 61.3693 33.8913C62.1151 33.7138 62.875 33.5788 63.6491 33.4865C64.6293 33.3729 65.4247 33.2805 66.0355 33.2095C66.6463 33.1314 67.0902 33.0071 67.3672 32.8366C67.6442 32.6662 67.7827 32.3892 67.7827 32.0057V31.9311C67.7827 31.0007 67.5199 30.2798 66.9943 29.7685C66.4759 29.2571 65.7017 29.0014 64.6719 29.0014C63.5994 29.0014 62.7543 29.2393 62.1364 29.7152C61.5256 30.1839 61.103 30.706 60.8686 31.2812L57.875 30.5994C58.2301 29.6051 58.7486 28.8026 59.4304 28.1918C60.1193 27.5739 60.9112 27.1264 61.8061 26.8494C62.701 26.5653 63.642 26.4233 64.6293 26.4233C65.2827 26.4233 65.9751 26.5014 66.7067 26.6577C67.4453 26.8068 68.1342 27.0838 68.7734 27.4886C69.4197 27.8935 69.9489 28.4723 70.3608 29.2251C70.7727 29.9709 70.9787 30.9403 70.9787 32.1335V43H67.8679V40.7628H67.7401C67.5341 41.1747 67.2251 41.5795 66.8132 41.9773C66.4013 42.375 65.8722 42.7053 65.2259 42.968C64.5795 43.2308 63.8054 43.3622 62.9034 43.3622ZM63.5959 40.8054C64.4766 40.8054 65.2294 40.6314 65.8544 40.2834C66.4865 39.9354 66.9659 39.4808 67.2926 38.9197C67.6264 38.3516 67.7933 37.7443 67.7933 37.098V34.9886C67.6797 35.1023 67.4595 35.2088 67.1328 35.3082C66.8132 35.4006 66.4474 35.4822 66.0355 35.5533C65.6236 35.6172 65.2223 35.6776 64.8317 35.7344C64.4411 35.7841 64.1143 35.8267 63.8516 35.8622C63.2337 35.9403 62.669 36.0717 62.1577 36.2564C61.6534 36.4411 61.2486 36.7074 60.9432 37.0554C60.6449 37.3963 60.4957 37.8509 60.4957 38.419C60.4957 39.2074 60.7869 39.804 61.3693 40.2088C61.9517 40.6065 62.6939 40.8054 63.5959 40.8054ZM77.7356 26.6364L81.3471 33.0071L84.9906 26.6364H88.4743L83.3713 34.8182L88.5169 43H85.0332L81.3471 36.8849L77.6717 43H74.1774L79.2697 34.8182L74.2413 26.6364H77.7356ZM106.098 41.6151V27.2116H108.963V41.6151H106.098ZM100.334 35.8409V32.9751H114.738V35.8409H100.334ZM127.86 43V21.1818H131.045V29.2891H131.237C131.422 28.9482 131.688 28.554 132.036 28.1065C132.384 27.6591 132.867 27.2685 133.485 26.9347C134.103 26.5938 134.92 26.4233 135.935 26.4233C137.256 26.4233 138.435 26.7571 139.472 27.4247C140.509 28.0923 141.322 29.0547 141.912 30.3118C142.508 31.5689 142.807 33.0817 142.807 34.8501C142.807 36.6186 142.512 38.1349 141.922 39.3991C141.333 40.6562 140.523 41.6257 139.493 42.3075C138.464 42.9822 137.288 43.3196 135.967 43.3196C134.973 43.3196 134.16 43.1527 133.528 42.8189C132.903 42.4851 132.412 42.0945 132.057 41.647C131.702 41.1996 131.429 40.8018 131.237 40.4538H130.971V43H127.86ZM130.981 34.8182C130.981 35.9687 131.148 36.9773 131.482 37.8438C131.816 38.7102 132.299 39.3885 132.931 39.8786C133.563 40.3615 134.337 40.603 135.253 40.603C136.205 40.603 137.001 40.3509 137.64 39.8466C138.279 39.3352 138.762 38.6428 139.089 37.7692C139.422 36.8956 139.589 35.9119 139.589 34.8182C139.589 33.7386 139.426 32.7692 139.099 31.9098C138.78 31.0504 138.297 30.3722 137.65 29.875C137.011 29.3778 136.212 29.1293 135.253 29.1293C134.33 29.1293 133.549 29.3672 132.91 29.843C132.278 30.3189 131.798 30.983 131.471 31.8352C131.145 32.6875 130.981 33.6818 130.981 34.8182ZM155.346 30.2053V27.4141H168.993V30.2053H155.346ZM155.346 36.7678V33.9766H168.993V36.7678H155.346ZM189.796 43.3622C188.113 43.3551 186.675 42.9112 185.482 42.0305C184.288 41.1499 183.376 39.8679 182.744 38.1847C182.112 36.5014 181.795 34.4737 181.795 32.1016C181.795 29.7365 182.112 27.7159 182.744 26.0398C183.383 24.3636 184.299 23.0852 185.492 22.2045C186.692 21.3239 188.127 20.8835 189.796 20.8835C191.465 20.8835 192.896 21.3274 194.089 22.2152C195.283 23.0959 196.195 24.3743 196.827 26.0504C197.467 27.7195 197.786 29.7365 197.786 32.1016C197.786 34.4808 197.47 36.5121 196.838 38.1953C196.206 39.8714 195.293 41.1534 194.1 42.0412C192.907 42.9219 191.472 43.3622 189.796 43.3622ZM189.796 40.5178C191.273 40.5178 192.428 39.7969 193.259 38.3551C194.097 36.9134 194.516 34.8288 194.516 32.1016C194.516 30.2905 194.324 28.7599 193.94 27.5099C193.564 26.2528 193.021 25.3011 192.31 24.6548C191.607 24.0014 190.769 23.6747 189.796 23.6747C188.326 23.6747 187.172 24.3991 186.334 25.848C185.496 27.2969 185.073 29.3814 185.066 32.1016C185.066 33.9197 185.254 35.4574 185.631 36.7145C186.014 37.9645 186.558 38.9126 187.261 39.5589C187.964 40.1982 188.809 40.5178 189.796 40.5178Z" fill="black"/>
<rect x="78.5" y="54.5" width="248" height="67" rx="13.5" fill="#95DEDE" stroke="black" stroke-width="3"/>
<path d="M102.903 99.3622C101.866 99.3622 100.929 99.1705 100.091 98.7869C99.2528 98.3963 98.5888 97.8317 98.0987 97.093C97.6158 96.3544 97.3743 95.4489 97.3743 94.3764C97.3743 93.4531 97.5518 92.6932 97.907 92.0966C98.2621 91.5 98.7415 91.0277 99.3452 90.6797C99.9489 90.3317 100.624 90.0689 101.369 89.8913C102.115 89.7138 102.875 89.5788 103.649 89.4865C104.629 89.3729 105.425 89.2805 106.036 89.2095C106.646 89.1314 107.09 89.0071 107.367 88.8366C107.644 88.6662 107.783 88.3892 107.783 88.0057V87.9311C107.783 87.0007 107.52 86.2798 106.994 85.7685C106.476 85.2571 105.702 85.0014 104.672 85.0014C103.599 85.0014 102.754 85.2393 102.136 85.7152C101.526 86.1839 101.103 86.706 100.869 87.2812L97.875 86.5994C98.2301 85.6051 98.7486 84.8026 99.4304 84.1918C100.119 83.5739 100.911 83.1264 101.806 82.8494C102.701 82.5653 103.642 82.4233 104.629 82.4233C105.283 82.4233 105.975 82.5014 106.707 82.6577C107.445 82.8068 108.134 83.0838 108.773 83.4886C109.42 83.8935 109.949 84.4723 110.361 85.2251C110.773 85.9709 110.979 86.9403 110.979 88.1335V99H107.868V96.7628H107.74C107.534 97.1747 107.225 97.5795 106.813 97.9773C106.401 98.375 105.872 98.7053 105.226 98.968C104.58 99.2308 103.805 99.3622 102.903 99.3622ZM103.596 96.8054C104.477 96.8054 105.229 96.6314 105.854 96.2834C106.487 95.9354 106.966 95.4808 107.293 94.9197C107.626 94.3516 107.793 93.7443 107.793 93.098V90.9886C107.68 91.1023 107.46 91.2088 107.133 91.3082C106.813 91.4006 106.447 91.4822 106.036 91.5533C105.624 91.6172 105.222 91.6776 104.832 91.7344C104.441 91.7841 104.114 91.8267 103.852 91.8622C103.234 91.9403 102.669 92.0717 102.158 92.2564C101.653 92.4411 101.249 92.7074 100.943 93.0554C100.645 93.3963 100.496 93.8509 100.496 94.419C100.496 95.2074 100.787 95.804 101.369 96.2088C101.952 96.6065 102.694 96.8054 103.596 96.8054ZM117.736 82.6364L121.347 89.0071L124.991 82.6364H128.474L123.371 90.8182L128.517 99H125.033L121.347 92.8849L117.672 99H114.177L119.27 90.8182L114.241 82.6364H117.736ZM146.098 97.6151V83.2116H148.963V97.6151H146.098ZM140.334 91.8409V88.9751H154.738V91.8409H140.334ZM167.86 99V77.1818H171.045V85.2891H171.237C171.422 84.9482 171.688 84.554 172.036 84.1065C172.384 83.6591 172.867 83.2685 173.485 82.9347C174.103 82.5938 174.92 82.4233 175.935 82.4233C177.256 82.4233 178.435 82.7571 179.472 83.4247C180.509 84.0923 181.322 85.0547 181.912 86.3118C182.508 87.5689 182.807 89.0817 182.807 90.8501C182.807 92.6186 182.512 94.1349 181.922 95.3991C181.333 96.6562 180.523 97.6257 179.493 98.3075C178.464 98.9822 177.288 99.3196 175.967 99.3196C174.973 99.3196 174.16 99.1527 173.528 98.8189C172.903 98.4851 172.412 98.0945 172.057 97.647C171.702 97.1996 171.429 96.8018 171.237 96.4538H170.971V99H167.86ZM170.981 90.8182C170.981 91.9687 171.148 92.9773 171.482 93.8438C171.816 94.7102 172.299 95.3885 172.931 95.8786C173.563 96.3615 174.337 96.603 175.253 96.603C176.205 96.603 177.001 96.3509 177.64 95.8466C178.279 95.3352 178.762 94.6428 179.089 93.7692C179.422 92.8956 179.589 91.9119 179.589 90.8182C179.589 89.7386 179.426 88.7692 179.099 87.9098C178.78 87.0504 178.297 86.3722 177.65 85.875C177.011 85.3778 176.212 85.1293 175.253 85.1293C174.33 85.1293 173.549 85.3672 172.91 85.843C172.278 86.3189 171.798 86.983 171.471 87.8352C171.145 88.6875 170.981 89.6818 170.981 90.8182ZM187.84 105.136C187.365 105.136 186.931 105.097 186.541 105.019C186.15 104.948 185.859 104.87 185.667 104.785L186.434 102.175C187.017 102.331 187.535 102.398 187.99 102.377C188.444 102.356 188.845 102.185 189.193 101.866C189.548 101.546 189.861 101.024 190.131 100.3L190.525 99.2131L184.538 82.6364H187.947L192.091 95.3352H192.262L196.406 82.6364H199.825L193.082 101.184C192.769 102.036 192.372 102.757 191.889 103.347C191.406 103.943 190.83 104.391 190.163 104.689C189.495 104.987 188.721 105.136 187.84 105.136ZM217.172 97.6151V83.2116H220.038V97.6151H217.172ZM211.408 91.8409V88.9751H225.812V91.8409H211.408ZM245.571 99.3303C243.987 99.3303 242.624 98.9716 241.48 98.2543C240.344 97.5298 239.47 96.532 238.86 95.2607C238.249 93.9893 237.943 92.5334 237.943 90.8928C237.943 89.2308 238.256 87.7642 238.881 86.4929C239.506 85.2145 240.387 84.2166 241.523 83.4993C242.659 82.782 243.998 82.4233 245.539 82.4233C246.782 82.4233 247.89 82.6541 248.863 83.1158C249.836 83.5703 250.621 84.2095 251.218 85.0334C251.821 85.8572 252.18 86.8196 252.294 87.9205H249.193C249.023 87.1534 248.632 86.4929 248.021 85.9389C247.418 85.3849 246.608 85.108 245.593 85.108C244.705 85.108 243.927 85.3423 243.259 85.8111C242.599 86.2727 242.084 86.9332 241.715 87.7926C241.345 88.6449 241.161 89.6534 241.161 90.8182C241.161 92.0114 241.342 93.0412 241.704 93.9077C242.066 94.7741 242.578 95.4453 243.238 95.9212C243.906 96.397 244.691 96.6349 245.593 96.6349C246.196 96.6349 246.743 96.5249 247.233 96.3047C247.73 96.0774 248.146 95.7543 248.48 95.3352C248.82 94.9162 249.058 94.4119 249.193 93.8224H252.294C252.18 94.8807 251.835 95.8253 251.26 96.6562C250.685 97.4872 249.914 98.1406 248.948 98.6165C247.99 99.0923 246.864 99.3303 245.571 99.3303ZM264.662 86.2053V83.4141H278.309V86.2053H264.662ZM264.662 92.7678V89.9766H278.309V92.7678H264.662ZM299.113 99.3622C297.429 99.3551 295.991 98.9112 294.798 98.0305C293.605 97.1499 292.692 95.8679 292.06 94.1847C291.428 92.5014 291.112 90.4737 291.112 88.1016C291.112 85.7365 291.428 83.7159 292.06 82.0398C292.699 80.3636 293.615 79.0852 294.809 78.2045C296.009 77.3239 297.444 76.8835 299.113 76.8835C300.782 76.8835 302.213 77.3274 303.406 78.2152C304.599 79.0959 305.512 80.3743 306.144 82.0504C306.783 83.7195 307.103 85.7365 307.103 88.1016C307.103 90.4808 306.787 92.5121 306.154 94.1953C305.522 95.8714 304.61 97.1534 303.417 98.0412C302.223 98.9219 300.789 99.3622 299.113 99.3622ZM299.113 96.5178C300.59 96.5178 301.744 95.7969 302.575 94.3551C303.413 92.9134 303.832 90.8288 303.832 88.1016C303.832 86.2905 303.64 84.7599 303.257 83.5099C302.88 82.2528 302.337 81.3011 301.627 80.6548C300.924 80.0014 300.086 79.6747 299.113 79.6747C297.642 79.6747 296.488 80.3991 295.65 81.848C294.812 83.2969 294.39 85.3814 294.382 88.1016C294.382 89.9197 294.571 91.4574 294.947 92.7145C295.331 93.9645 295.874 94.9126 296.577 95.5589C297.28 96.1982 298.125 96.5178 299.113 96.5178Z" fill="black"/>
<rect x="1.5" y="111.5" width="255" height="67" rx="13.5" fill="#FFE58A" stroke="black" stroke-width="3"/>
<path d="M21.9034 156.362C20.8665 156.362 19.929 156.17 19.0909 155.787C18.2528 155.396 17.5888 154.832 17.0987 154.093C16.6158 153.354 16.3743 152.449 16.3743 151.376C16.3743 150.453 16.5518 149.693 16.907 149.097C17.2621 148.5 17.7415 148.028 18.3452 147.68C18.9489 147.332 19.6236 147.069 20.3693 146.891C21.1151 146.714 21.875 146.579 22.6491 146.487C23.6293 146.373 24.4247 146.281 25.0355 146.21C25.6463 146.131 26.0902 146.007 26.3672 145.837C26.6442 145.666 26.7827 145.389 26.7827 145.006V144.931C26.7827 144.001 26.5199 143.28 25.9943 142.768C25.4759 142.257 24.7017 142.001 23.6719 142.001C22.5994 142.001 21.7543 142.239 21.1364 142.715C20.5256 143.184 20.103 143.706 19.8686 144.281L16.875 143.599C17.2301 142.605 17.7486 141.803 18.4304 141.192C19.1193 140.574 19.9112 140.126 20.8061 139.849C21.701 139.565 22.642 139.423 23.6293 139.423C24.2827 139.423 24.9751 139.501 25.7067 139.658C26.4453 139.807 27.1342 140.084 27.7734 140.489C28.4197 140.893 28.9489 141.472 29.3608 142.225C29.7727 142.971 29.9787 143.94 29.9787 145.134V156H26.8679V153.763H26.7401C26.5341 154.175 26.2251 154.58 25.8132 154.977C25.4013 155.375 24.8722 155.705 24.2259 155.968C23.5795 156.231 22.8054 156.362 21.9034 156.362ZM22.5959 153.805C23.4766 153.805 24.2294 153.631 24.8544 153.283C25.4865 152.935 25.9659 152.481 26.2926 151.92C26.6264 151.352 26.7933 150.744 26.7933 150.098V147.989C26.6797 148.102 26.4595 148.209 26.1328 148.308C25.8132 148.401 25.4474 148.482 25.0355 148.553C24.6236 148.617 24.2223 148.678 23.8317 148.734C23.4411 148.784 23.1143 148.827 22.8516 148.862C22.2337 148.94 21.669 149.072 21.1577 149.256C20.6534 149.441 20.2486 149.707 19.9432 150.055C19.6449 150.396 19.4957 150.851 19.4957 151.419C19.4957 152.207 19.7869 152.804 20.3693 153.209C20.9517 153.607 21.6939 153.805 22.5959 153.805ZM36.7356 139.636L40.3471 146.007L43.9906 139.636H47.4743L42.3713 147.818L47.5169 156H44.0332L40.3471 149.885L36.6717 156H33.1774L38.2697 147.818L33.2413 139.636H36.7356ZM65.0977 154.615V140.212H67.9634V154.615H65.0977ZM59.3342 148.841V145.975H73.7376V148.841H59.3342ZM86.8599 156V134.182H90.0453V142.289H90.237C90.4217 141.948 90.688 141.554 91.036 141.107C91.3841 140.659 91.867 140.268 92.4849 139.935C93.1028 139.594 93.9196 139.423 94.9352 139.423C96.2562 139.423 97.4352 139.757 98.4721 140.425C99.5091 141.092 100.322 142.055 100.912 143.312C101.508 144.569 101.807 146.082 101.807 147.85C101.807 149.619 101.512 151.135 100.922 152.399C100.333 153.656 99.5233 154.626 98.4934 155.308C97.4636 155.982 96.2882 156.32 94.9672 156.32C93.9728 156.32 93.1596 156.153 92.5275 155.819C91.9025 155.485 91.4125 155.094 91.0574 154.647C90.7022 154.2 90.4288 153.802 90.237 153.454H89.9707V156H86.8599ZM89.9814 147.818C89.9814 148.969 90.1483 149.977 90.4821 150.844C90.8159 151.71 91.2988 152.388 91.9309 152.879C92.563 153.362 93.3372 153.603 94.2534 153.603C95.2051 153.603 96.0005 153.351 96.6397 152.847C97.2789 152.335 97.7619 151.643 98.0886 150.769C98.4224 149.896 98.5893 148.912 98.5893 147.818C98.5893 146.739 98.426 145.769 98.0993 144.91C97.7797 144.05 97.2967 143.372 96.6504 142.875C96.0112 142.378 95.2122 142.129 94.2534 142.129C93.3301 142.129 92.5488 142.367 91.9096 142.843C91.2775 143.319 90.7981 143.983 90.4714 144.835C90.1447 145.687 89.9814 146.682 89.9814 147.818ZM106.84 162.136C106.365 162.136 105.931 162.097 105.541 162.019C105.15 161.948 104.859 161.87 104.667 161.785L105.434 159.175C106.017 159.331 106.535 159.398 106.99 159.377C107.444 159.356 107.845 159.185 108.193 158.866C108.548 158.546 108.861 158.024 109.131 157.3L109.525 156.213L103.538 139.636H106.947L111.091 152.335H111.262L115.406 139.636H118.825L112.082 158.184C111.769 159.036 111.372 159.757 110.889 160.347C110.406 160.943 109.83 161.391 109.163 161.689C108.495 161.987 107.721 162.136 106.84 162.136ZM136.172 154.615V140.212H139.038V154.615H136.172ZM130.408 148.841V145.975H144.812V148.841H130.408ZM164.571 156.33C162.987 156.33 161.624 155.972 160.48 155.254C159.344 154.53 158.47 153.532 157.86 152.261C157.249 150.989 156.943 149.533 156.943 147.893C156.943 146.231 157.256 144.764 157.881 143.493C158.506 142.214 159.387 141.217 160.523 140.499C161.659 139.782 162.998 139.423 164.539 139.423C165.782 139.423 166.89 139.654 167.863 140.116C168.836 140.57 169.621 141.21 170.218 142.033C170.821 142.857 171.18 143.82 171.294 144.92H168.193C168.023 144.153 167.632 143.493 167.021 142.939C166.418 142.385 165.608 142.108 164.593 142.108C163.705 142.108 162.927 142.342 162.259 142.811C161.599 143.273 161.084 143.933 160.715 144.793C160.345 145.645 160.161 146.653 160.161 147.818C160.161 149.011 160.342 150.041 160.704 150.908C161.066 151.774 161.578 152.445 162.238 152.921C162.906 153.397 163.691 153.635 164.593 153.635C165.196 153.635 165.743 153.525 166.233 153.305C166.73 153.077 167.146 152.754 167.48 152.335C167.82 151.916 168.058 151.412 168.193 150.822H171.294C171.18 151.881 170.835 152.825 170.26 153.656C169.685 154.487 168.914 155.141 167.948 155.616C166.99 156.092 165.864 156.33 164.571 156.33ZM174.359 156V153.816L183.223 142.555V142.406H174.647V139.636H187.196V141.959L178.674 153.081V153.23H187.495V156H174.359ZM200.215 145.528V142.726H213.862V145.528H200.215ZM200.215 152.09V149.288H213.862V152.09H200.215ZM233.238 156.32C231.917 156.32 230.738 155.982 229.701 155.308C228.671 154.626 227.861 153.656 227.272 152.399C226.689 151.135 226.398 149.619 226.398 147.85C226.398 146.082 226.693 144.569 227.282 143.312C227.879 142.055 228.696 141.092 229.733 140.425C230.77 139.757 231.945 139.423 233.259 139.423C234.275 139.423 235.091 139.594 235.709 139.935C236.334 140.268 236.817 140.659 237.158 141.107C237.506 141.554 237.776 141.948 237.968 142.289H238.16V134.182H241.345V156H238.234V153.454H237.968C237.776 153.802 237.499 154.2 237.137 154.647C236.782 155.094 236.292 155.485 235.667 155.819C235.042 156.153 234.232 156.32 233.238 156.32ZM233.941 153.603C234.857 153.603 235.631 153.362 236.263 152.879C236.903 152.388 237.385 151.71 237.712 150.844C238.046 149.977 238.213 148.969 238.213 147.818C238.213 146.682 238.05 145.687 237.723 144.835C237.396 143.983 236.917 143.319 236.285 142.843C235.653 142.367 234.871 142.129 233.941 142.129C232.982 142.129 232.183 142.378 231.544 142.875C230.905 143.372 230.422 144.05 230.095 144.91C229.775 145.769 229.616 146.739 229.616 147.818C229.616 148.912 229.779 149.896 230.106 150.769C230.432 151.643 230.915 152.335 231.555 152.847C232.201 153.351 232.996 153.603 233.941 153.603Z" fill="black"/>
</svg>
